<svg width="32" height="32" viewBox="0 0 32 32" fill="none" xmlns="http://www.w3.org/2000/svg">
<mask id="mask0_14742_282431" style="mask-type:alpha" maskUnits="userSpaceOnUse" x="4" y="4" width="24" height="24">
<rect x="4" y="4" width="24" height="24" fill="#D9D9D9"/>
</mask>
<g mask="url(#mask0_14742_282431)">
<path fill-rule="evenodd" clip-rule="evenodd" d="M7.767 21.1621L6.81057 21.2484C6.64177 21.2628 6.49002 21.1462 6.46446 20.9794C5.61467 15.3303 8.07018 11.2263 9.6325 9.62577C9.76458 9.48919 9.76586 9.27373 9.61507 9.16105C9.25174 8.88644 8.61713 8.48425 7.76813 8.12996C7.66438 8.08642 7.5868 7.99319 7.57856 7.87986C7.45467 6.01945 10.613 6.34361 12.7698 7.25704C12.8522 7.29321 12.9486 7.29186 13.0322 7.25822C20.1012 4.35524 23.4829 7.4492 24.8705 8.71684C24.9539 8.79287 25.0292 8.86349 25.0985 8.9245C25.1909 9.00525 25.3188 9.0199 25.4332 8.97262C27.2556 8.23015 28.0485 8.93839 27.9977 9.55159C27.9449 10.1856 27.4929 10.5483 18.2115 13.1555C11.1101 15.15 8.5489 18.9923 8.07377 20.8917C8.03683 21.0368 7.9163 21.1482 7.767 21.1621ZM21.5145 8.27999C21.7069 8.58234 21.6147 8.98472 21.3083 9.17966C21.002 9.3746 20.5984 9.2877 20.406 8.98536C20.2136 8.68302 20.3058 8.28063 20.6122 8.08569C20.9185 7.89075 21.3221 7.97765 21.5145 8.27999ZM21.3818 12.9469L18.331 13.7641C18.3064 13.8879 18.2962 14.0009 18.2827 14.1326C18.254 14.427 18.2155 14.8133 17.9968 15.6264C17.6814 16.8012 18.9944 16.7161 20.1563 15.6765C21.0856 14.845 21.3618 13.5105 21.3818 12.9469ZM5.3814 25.5006C5.95668 24.8703 7.10159 24.6596 7.60151 24.6326C8.30317 24.5283 9.65253 25.1241 10.1071 25.5898C10.5612 26.0573 11.4155 26.2837 11.3688 24.8529C11.3215 23.4211 9.47612 21.9551 7.41532 21.9263C5.35447 21.8974 4.12152 23.7432 4.01098 24.8237C3.89914 25.905 4.66216 26.287 5.3814 25.5006Z" fill="#2E2183"/>
</g>
<path d="M23 14C23 15.6727 23.5818 17.0909 24.7455 18.2545C25.9091 19.4182 27.3273 20 29 20C27.3273 20 25.9091 20.5818 24.7455 21.7455C23.5818 22.9091 23 24.3273 23 26C23 24.3273 22.4182 22.9091 21.2545 21.7455C20.0909 20.5818 18.6727 20 17 20C18.6727 20 20.0909 19.4182 21.2545 18.2545C22.4182 17.0909 23 15.6727 23 14Z" fill="#2E2183"/>
<path d="M17 23C17 23.8364 17.2909 24.5455 17.8727 25.1273C18.4545 25.7091 19.1636 26 20 26C19.1636 26 18.4545 26.2909 17.8727 26.8727C17.2909 27.4545 17 28.1636 17 29C17 28.1636 16.7091 27.4545 16.1273 26.8727C15.5455 26.2909 14.8364 26 14 26C14.8364 26 15.5455 25.7091 16.1273 25.1273C16.7091 24.5455 17 23.8364 17 23Z" fill="#2E2183"/>
</svg>
